<svg xmlns="http://www.w3.org/2000/svg" width="920" height="520" viewBox="0 0 920 520">
  <defs>
    <linearGradient id="bg" x1="0" y1="0" x2="0" y2="1">
      <stop offset="0%" stop-color="#0f1114"/>
      <stop offset="100%" stop-color="#0b0c0f"/>
    </linearGradient>
    <linearGradient id="graphGlow" x1="0" y1="0" x2="1" y2="0">
      <stop offset="0%" stop-color="#3dd8ff" stop-opacity="0.10"/>
      <stop offset="100%" stop-color="#89f7d1" stop-opacity="0.03"/>
    </linearGradient>
    <filter id="shadow" x="-20%" y="-20%" width="140%" height="140%">
      <feDropShadow dx="0" dy="8" stdDeviation="12" flood-color="#000000" flood-opacity="0.35"/>
    </filter>
    <style>
      .title { font: 700 17px 'Helvetica Neue', Arial, sans-serif; fill: #edf1f7; letter-spacing: 0.6px; }
      .sub { font: 500 11px 'Helvetica Neue', Arial, sans-serif; fill: #8c95a1; }
      .lbl { font: 600 10px 'Helvetica Neue', Arial, sans-serif; fill: #8c95a1; letter-spacing: 0.8px; }
      .txt { font: 600 11px 'Helvetica Neue', Arial, sans-serif; fill: #edf1f7; }
      .tiny { font: 500 9px 'Helvetica Neue', Arial, sans-serif; fill: #8c95a1; }
      .chip { font: 700 10px 'Helvetica Neue', Arial, sans-serif; fill: #0b0c10; }
    </style>
  </defs>

  <rect x="0" y="0" width="920" height="520" fill="url(#bg)"/>

  <rect x="14" y="10" width="892" height="42" rx="10" fill="#13161a" stroke="#2b3138"/>
  <text x="28" y="30" class="title">LINEAR-PHASE EQ</text>
  <text x="28" y="44" class="sub">Mastering-grade EQ with analyzer-backed node editing</text>

  <text x="270" y="24" class="lbl">PROCESSING</text>
  <rect x="268" y="29" width="170" height="16" rx="8" fill="#171b20" stroke="#2b3138"/>
  <rect x="374" y="31" width="58" height="12" rx="6" fill="#3dd8ff" fill-opacity="0.85"/>
  <text x="281" y="40" class="tiny">ZERO</text>
  <text x="328" y="40" class="tiny">NATURAL</text>
  <text x="387" y="40" class="chip">LINEAR</text>

  <text x="458" y="24" class="lbl">ANALYZER</text>
  <rect x="456" y="29" width="124" height="16" rx="8" fill="#171b20" stroke="#2b3138"/>
  <rect x="533" y="31" width="40" height="12" rx="6" fill="#3dd8ff" fill-opacity="0.85"/>
  <text x="468" y="40" class="tiny">OFF</text>
  <text x="502" y="40" class="tiny">PRE</text>
  <text x="544" y="40" class="chip">POST</text>

  <text x="604" y="24" class="lbl">RANGE</text>
  <rect x="602" y="29" width="90" height="16" rx="8" fill="#171b20" stroke="#2b3138"/>
  <rect x="645" y="31" width="20" height="12" rx="6" fill="#2c3138"/>
  <text x="614" y="40" class="tiny">3</text>
  <text x="632" y="40" class="tiny">6</text>
  <text x="649" y="40" class="txt">12</text>
  <text x="674" y="40" class="tiny">30</text>

  <text x="716" y="24" class="lbl">LATENCY</text>
  <text x="716" y="40" class="txt">93 ms</text>

  <rect x="14" y="64" width="892" height="262" rx="14" fill="#101317" stroke="#2b3138" filter="url(#shadow)"/>
  <rect x="24" y="74" width="740" height="242" rx="12" fill="#0e1115" stroke="#242b32"/>
  <rect x="24" y="74" width="740" height="242" rx="12" fill="url(#graphGlow)"/>

  <g stroke="#242b32" stroke-width="1">
    <line x1="84" y1="90" x2="84" y2="300"/>
    <line x1="150" y1="90" x2="150" y2="300"/>
    <line x1="228" y1="90" x2="228" y2="300"/>
    <line x1="320" y1="90" x2="320" y2="300"/>
    <line x1="430" y1="90" x2="430" y2="300"/>
    <line x1="548" y1="90" x2="548" y2="300"/>
    <line x1="654" y1="90" x2="654" y2="300"/>
    <line x1="24" y1="118" x2="764" y2="118"/>
    <line x1="24" y1="160" x2="764" y2="160"/>
    <line x1="24" y1="197" x2="764" y2="197"/>
    <line x1="24" y1="240" x2="764" y2="240"/>
    <line x1="24" y1="278" x2="764" y2="278"/>
  </g>

  <line x1="24" y1="197" x2="764" y2="197" stroke="#f2f5fb" stroke-opacity="0.18" stroke-width="1.4"/>
  <path d="M 24 236 C 110 238, 150 216, 218 218 S 348 204, 430 180 S 580 138, 764 150"
        fill="none" stroke="#f2f5fb" stroke-width="3"/>
  <path d="M 24 255 C 110 254, 150 234, 218 228 S 348 210, 430 188 S 580 150, 764 162"
        fill="none" stroke="#3dd8ff" stroke-opacity="0.45" stroke-width="2"/>
  <path d="M 24 316 L 24 255 C 110 254, 150 234, 218 228 S 348 210, 430 188 S 580 150, 764 162 L 764 316 Z"
        fill="#3dd8ff" fill-opacity="0.08"/>

  <line x1="430" y1="74" x2="430" y2="316" stroke="#48dfff" stroke-opacity="0.35" stroke-width="1.2"/>
  <line x1="24" y1="180" x2="764" y2="180" stroke="#48dfff" stroke-opacity="0.22" stroke-width="1.2"/>
  <circle cx="430" cy="180" r="10" fill="#36f1a4" stroke="#f2f5fb" stroke-width="2"/>
  <circle cx="430" cy="180" r="3" fill="#ffffff"/>
  <text x="444" y="171" class="txt">4</text>

  <rect x="48" y="88" width="224" height="28" rx="8" fill="#15191e" stroke="#2b3138"/>
  <rect x="56" y="94" width="46" height="16" rx="6" fill="#36f1a4"/>
  <text x="69" y="105" class="chip">B4</text>
  <text x="112" y="105" class="txt">Peak</text>
  <text x="150" y="105" class="txt">2.50 kHz</text>
  <text x="214" y="105" class="txt">+2.5 dB</text>

  <rect x="780" y="74" width="116" height="242" rx="12" fill="#14181d" stroke="#2b3138"/>
  <text x="798" y="98" class="lbl">OUTPUT</text>
  <rect x="798" y="110" width="36" height="44" rx="8" fill="#171b20" stroke="#2b3138"/>
  <text x="805" y="136" class="txt">GAIN</text>
  <rect x="844" y="110" width="36" height="18" rx="6" fill="#171b20" stroke="#2b3138"/>
  <text x="852" y="123" class="tiny">BYP</text>
  <rect x="844" y="136" width="36" height="18" rx="6" fill="#171b20" stroke="#2b3138"/>
  <text x="850" y="149" class="tiny">AUTO</text>
  <text x="798" y="180" class="lbl">PLACEMENT</text>
  <rect x="798" y="190" width="82" height="18" rx="8" fill="#171b20" stroke="#2b3138"/>
  <text x="807" y="203" class="tiny">STEREO   M/S   L/R</text>
  <text x="798" y="230" class="lbl">NOTES</text>
  <text x="798" y="246" class="tiny">Latency visible.</text>
  <text x="798" y="259" class="tiny">Analyzer mode visible.</text>

  <rect x="14" y="338" width="892" height="110" rx="12" fill="#13171c" stroke="#2b3138"/>
  <text x="28" y="362" class="title" style="font-size:15px;">BAND 4</text>
  <text x="96" y="362" class="txt">Peak</text>
  <text x="146" y="362" class="lbl">FREQ</text>
  <text x="182" y="362" class="txt">2.50 kHz</text>
  <text x="268" y="362" class="lbl">GAIN</text>
  <text x="306" y="362" class="txt">+2.5 dB</text>
  <text x="380" y="362" class="lbl">Q</text>
  <text x="397" y="362" class="txt">1.20</text>
  <text x="440" y="362" class="lbl">DYN</text>
  <text x="470" y="362" class="txt">0.0 dB</text>

  <rect x="28" y="378" width="110" height="22" rx="8" fill="#171b20" stroke="#2b3138"/>
  <rect x="150" y="378" width="110" height="22" rx="8" fill="#171b20" stroke="#2b3138"/>
  <rect x="272" y="378" width="110" height="22" rx="8" fill="#171b20" stroke="#2b3138"/>
  <rect x="394" y="378" width="110" height="22" rx="8" fill="#171b20" stroke="#2b3138"/>
  <rect x="516" y="378" width="72" height="22" rx="8" fill="#36f1a4" fill-opacity="0.18" stroke="#36f1a4"/>
  <rect x="600" y="378" width="72" height="22" rx="8" fill="#171b20" stroke="#2b3138"/>

  <text x="40" y="393" class="tiny">TYPE     Peak</text>
  <text x="162" y="393" class="tiny">SLOPE    12 dB</text>
  <text x="284" y="393" class="tiny">CHAN     Stereo</text>
  <text x="406" y="393" class="tiny">WIDTH    1.00</text>
  <text x="539" y="393" class="txt">ENABLE</text>
  <text x="622" y="393" class="tiny">SOLO</text>

  <rect x="28" y="412" width="164" height="14" rx="7" fill="#171b20" stroke="#2b3138"/>
  <rect x="204" y="412" width="164" height="14" rx="7" fill="#171b20" stroke="#2b3138"/>
  <rect x="380" y="412" width="164" height="14" rx="7" fill="#171b20" stroke="#2b3138"/>
  <rect x="556" y="412" width="164" height="14" rx="7" fill="#171b20" stroke="#2b3138"/>
  <text x="28" y="408" class="tiny">WIDTH</text>
  <text x="204" y="408" class="tiny">THRESH</text>
  <text x="380" y="408" class="tiny">RANGE</text>
  <text x="556" y="408" class="tiny">Q</text>

  <rect x="14" y="460" width="892" height="46" rx="12" fill="#11151a" stroke="#2b3138"/>
  <rect x="28" y="471" width="50" height="22" rx="11" fill="#2a3139" stroke="#44515d"/>
  <rect x="86" y="471" width="50" height="22" rx="11" fill="#2a3139" stroke="#44515d"/>
  <rect x="144" y="471" width="50" height="22" rx="11" fill="#2a3139" stroke="#44515d"/>
  <rect x="202" y="471" width="56" height="22" rx="11" fill="#36f1a4" stroke="#dff7ef"/>
  <rect x="266" y="471" width="50" height="22" rx="11" fill="#2a3139" stroke="#44515d"/>
  <rect x="324" y="471" width="50" height="22" rx="11" fill="#2a3139" stroke="#44515d"/>
  <rect x="382" y="471" width="50" height="22" rx="11" fill="#2a3139" stroke="#44515d"/>
  <rect x="440" y="471" width="50" height="22" rx="11" fill="#2a3139" stroke="#44515d"/>
  <rect x="786" y="471" width="92" height="22" rx="11" fill="#3dd8ff" fill-opacity="0.18" stroke="#3dd8ff"/>

  <text x="45" y="486" class="tiny">B1</text>
  <text x="103" y="486" class="tiny">B2</text>
  <text x="161" y="486" class="tiny">B3</text>
  <text x="223" y="486" class="txt">B4</text>
  <text x="283" y="486" class="tiny">B5</text>
  <text x="341" y="486" class="tiny">B6</text>
  <text x="399" y="486" class="tiny">B7</text>
  <text x="457" y="486" class="tiny">B8</text>
  <text x="813" y="486" class="txt">+ ADD BAND</text>
</svg>
